<?xml version="1.0" encoding="utf-8"?>
<!-- Svg Vector Icons : http://www.onlinewebfonts.com/icon -->
<!DOCTYPE svg PUBLIC "-//W3C//DTD SVG 1.1//EN" "http://www.w3.org/Graphics/SVG/1.1/DTD/svg11.dtd">
<svg version="1.1" xmlns="http://www.w3.org/2000/svg" xmlns:xlink="http://www.w3.org/1999/xlink" x="0px" y="0px" viewBox="0 0 1000 1000" enable-background="new 0 0 1000 1000" xml:space="preserve">
<metadata> Svg Vector Icons : http://www.onlinewebfonts.com/icon </metadata>
<g><g transform="translate(0.000000,511.000000) scale(0.100000,-0.100000)"><path d="M316.9,3726.3c-66.4-35.7-122.5-94.4-158.2-171L100,3443V110v-3333l58.7-112.3c35.7-76.6,91.9-135.3,158.2-171L419-3565l3578,7.7c3567.8,5.1,3578,5.1,3646.9,58.7c38.3,28.1,94.4,84.2,122.5,122.5c53.6,68.9,53.6,104.6,66.3,1559.3l12.8,1490.4l957-855c525.7-472.1,972.3-862.6,990.2-870.3c17.9-7.7,48.5,0,68.9,17.9c33.2,28.1,38.3,306.3,38.3,2143.7s-5.1,2115.7-38.3,2143.8c-20.4,17.9-51,25.5-68.9,17.9c-17.9-7.7-464.5-398.1-990.2-867.7l-957-854.9l-12.8,1487.9c-12.8,1454.7-12.8,1490.4-66.3,1559.3c-28.1,38.3-84.2,94.4-122.5,122.5c-68.9,53.6-79.1,53.6-3646.9,58.7L419,3785L316.9,3726.3z M6812,110v-2654.2H3966.4H1120.8V110v2654.2h2845.6H6812V110z"/><path d="M1758.9,7.9v-1046.4h344.5h344.5v408.3v408.3h331.8h331.8v-408.3v-408.3H3456h344.5V7.9v1046.3H3456h-344.5V697V337.1l-324.1,7.7l-326.7,7.7l-7.7,352.2l-7.7,349.6h-342h-344.5V7.9z"/><path d="M4183.3,10.5v-1048.9h561.5c313.9,0,617.6,12.8,694.2,28.1c326.7,68.9,574.2,268,686.5,553.8c48.5,122.5,58.7,196.5,58.7,464.5c2.5,188.8-10.2,362.4-30.6,426.2c-48.5,160.8-183.8,342-319,433.9c-227.1,153.1-321.6,168.4-1018.3,181.2l-632.9,10.2V10.5z M5324.1,505.6c125-74,171-176.1,181.2-423.6c12.8-255.2-17.9-370-127.6-497.7c-84.2-94.4-201.6-137.8-382.8-137.8h-122.5v564V577l186.3-12.8C5173.5,556.6,5275.6,533.6,5324.1,505.6z"/></g></g>
</svg>